#N canvas 285 23 1185 915 12;
#X obj 39 472 rest https://freesound.org/apiv2, f 70;
#X msg 38 434 GET \$1\$2;
#X obj 38 382 pack s s;
#X obj 91 331 loadbang;
#X msg 565 50 search;
#X msg 638 51 text;
#X msg 638 106 content;
#X msg 639 215 combined;
#X msg 744 47 ?query=;
#X msg 744 106 ?target=;
#X msg 744 133 ?descriptors_filter=;
#X obj 38 408 t l b, f 18;
#X text 38 521 Using the string as printed is buggy \, as it is truncated
at some random point. That is why we store instead the json description
in a file \, and structure the data from it.;
#X msg 557 544 read ./tmp.json;
#X obj 38 498 print BUGGY;
#X obj 557 571 text define json;
#X obj 520 775 text get json;
#X obj 525 520 t b b;
#X obj 520 802 route bang;
#X obj 520 747 f 0;
#X obj 556 747 + 1;
#X obj 520 702 until;
#X obj 520 662 t b b, f 8;
#X msg 573 699 0;
#X obj 525 495 del 1;
#X obj 520 638 del 10;
#X obj 587 828 list trim;
#X obj 587 853 print;
#X text 790 403 Download:;
#X text 790 466 original format... implies oath2 authentication;
#X text 779 565 otherwise ogg or mp3... which is bad for Pd.;
#X text 789 443 DOWNLOAD SOUND;
#X msg 783 538 sound instance;
#X msg 338 247 preview-hq-ogg;
#X msg 183 644 file;
#X obj 598 347 rest;
#X msg 600 285 GET https://freesound.org/apiv2/sounds/1234&token=qMUAlnX6PS8r1ONTdB9e2XftVJS0fNJAQZSHbNqD
, f 76;
#X msg 161 434 file ./tmp.json;
#X msg 91 357 symbol &token=qMUAlnX6PS8r1ONTdB9e2XftVJS0fNJAQZSHbNqD
, f 66;
#X msg 105 116 /sounds/4534/;
#X connect 0 0 14 0;
#X connect 1 0 0 0;
#X connect 2 0 11 0;
#X connect 3 0 38 0;
#X connect 11 0 1 0;
#X connect 13 0 15 0;
#X connect 16 0 18 0;
#X connect 17 0 25 0;
#X connect 17 1 13 0;
#X connect 18 0 21 1;
#X connect 18 1 26 0;
#X connect 19 0 16 0;
#X connect 19 0 20 0;
#X connect 20 0 19 1;
#X connect 21 0 19 0;
#X connect 22 0 21 0;
#X connect 22 1 23 0;
#X connect 23 0 19 1;
#X connect 24 0 17 0;
#X connect 25 0 22 0;
#X connect 26 0 27 0;
#X connect 34 0 0 0;
#X connect 36 0 35 0;
#X connect 37 0 0 0;
#X connect 38 0 2 1;
#X connect 39 0 2 0;
