#N canvas 340 80 1390 915 12;
#X obj 189 848 json-decode;
#N canvas 48 23 996 905 parse-json 0;
#X obj 19 15 inlet;
#X obj 398 126 json-decode;
#X obj 398 181 list trim;
#X obj 448 517 print NAME;
#X obj 398 543 print ID;
#X obj 601 293 print USERNAME;
#X obj 499 391 json-decode;
#X obj 472 181 bng 15 250 50 0 empty empty empty 17 7 0 10 -262144
-1 -1;
#X obj 20 88 route count next previous results;
#X obj 499 415 list append, f 16;
#X obj 510 439 t l;
#X obj 474 439 list;
#X obj 550 346 print LICENSE;
#X obj 474 464 list trim;
#X obj 550 320 t a b b;
#X obj 264 457 print -n;
#X obj 296 275 + 1;
#X obj 264 275 f 1;
#X obj 19 40 t l b, f 38;
#X obj 19 64 list trim;
#X msg 282 165 1;
#X msg 264 434 \  \, \$1);
#X obj 286 381 table sndid 151;
#X obj 285 356 tabwrite sndid;
#X obj 474 491 print TAGS;
#X obj 77 207 s \$0-next;
#X obj 77 180 symbol;
#X obj 134 153 symbol;
#X obj 134 177 s \$0-prev;
#N canvas 126 242 1247 537 more-fields 0;
#X obj 9 11 inlet;
#X obj 9 40 route url description geotag created type channels filesize
bitrate bitdepth duration samplerate pack download bookmark images
num_downloads avg_ratings num_ratings rate comments num_comments comment
similar_sounds analysis analysis_stats analysis_frames ac_analysis
, f 140;
#X obj 10 209 print URL;
#X obj 45 178 print DESCRIPTION;
#X obj 81 148 print GEOTAG;
#X obj 117 118 print CREATED;
#X obj 153 88 print TYPE;
#X obj 189 208 print CHANNELS;
#X obj 226 178 print FILESIZE;
#X obj 262 148 print BITRATE;
#X obj 298 118 print BITDEPTH;
#X obj 334 88 print DURATION;
#X obj 370 208 print SAMPLERATE;
#X obj 407 178 print PACK;
#X obj 443 148 print DOWNLOAD;
#X obj 479 118 print BOOKMARK;
#X obj 515 88 print IMAGES;
#X obj 551 208 print NUM_DOWNLOADS;
#X obj 587 178 print AVG_RATINGS;
#X obj 623 148 print NUM_RATINGS;
#X obj 659 118 print RATE;
#X obj 696 88 print COMMENTS;
#X obj 732 208 print NUM_COMMENTS;
#X obj 768 178 print COMMENT;
#X obj 805 148 print SIMILAR_SOUNDS;
#X obj 841 118 print ANALYSIS;
#X obj 877 88 print ANALYSIS_STATS;
#X obj 913 208 print ANALYSIS_FRAMES;
#X obj 949 178 print AC_ANALYSIS;
#X connect 0 0 1 0;
#X connect 1 0 2 0;
#X connect 1 1 3 0;
#X connect 1 2 4 0;
#X connect 1 3 5 0;
#X connect 1 4 6 0;
#X connect 1 5 7 0;
#X connect 1 6 8 0;
#X connect 1 7 9 0;
#X connect 1 8 10 0;
#X connect 1 9 11 0;
#X connect 1 10 12 0;
#X connect 1 11 13 0;
#X connect 1 12 14 0;
#X connect 1 13 15 0;
#X connect 1 14 16 0;
#X connect 1 15 17 0;
#X connect 1 16 18 0;
#X connect 1 17 19 0;
#X connect 1 18 20 0;
#X connect 1 19 21 0;
#X connect 1 20 22 0;
#X connect 1 21 23 0;
#X connect 1 22 24 0;
#X connect 1 23 25 0;
#X connect 1 24 26 0;
#X connect 1 25 27 0;
#X connect 1 26 28 0;
#X restore 703 234 pd more-fields;
#X obj 398 206 route id name tags license username previews;
#X obj 652 262 print PREVIEWS;
#X text 151 599 potential bug to list tags if connected to license.
Likewise with the numbering of the results;
#X obj 398 232 t f b;
#X obj 20 246 print MATCHING ITEMS;
#X connect 0 0 18 0;
#X connect 1 0 2 0;
#X connect 1 1 7 0;
#X connect 2 0 30 0;
#X connect 6 0 9 0;
#X connect 8 0 34 0;
#X connect 8 1 26 0;
#X connect 8 2 27 0;
#X connect 8 3 1 0;
#X connect 9 0 10 0;
#X connect 9 0 11 1;
#X connect 10 0 9 1;
#X connect 11 0 13 0;
#X connect 13 0 24 0;
#X connect 14 0 12 0;
#X connect 14 1 9 1;
#X connect 14 2 11 0;
#X connect 16 0 17 1;
#X connect 17 0 16 0;
#X connect 17 0 21 0;
#X connect 17 0 23 1;
#X connect 18 0 19 0;
#X connect 18 1 20 0;
#X connect 19 0 8 0;
#X connect 20 0 17 1;
#X connect 21 0 15 0;
#X connect 26 0 25 0;
#X connect 27 0 28 0;
#X connect 30 0 33 0;
#X connect 30 1 3 0;
#X connect 30 2 6 0;
#X connect 30 3 14 0;
#X connect 30 4 5 0;
#X connect 30 5 31 0;
#X connect 30 6 29 0;
#X connect 33 0 4 0;
#X connect 33 0 23 0;
#X connect 33 1 17 0;
#X restore 189 874 pd parse-json;
#X obj 1014 691 tabread sndid;
#X floatatom 1014 667 5 0 0 0 - - -;
#X floatatom 1014 717 0 0 0 0 - - -;
#X obj 960 454 loadbang;
#X obj 204 798 print URL STRING;
#X obj 189 822 rest;
#X obj 189 517 symbol;
#X obj 228 392 list2symbol %20;
#X obj 960 500 \$0;
#X obj 969 478 bng 15 250 50 0 empty empty empty 17 7 0 10 -262144
-1 -1;
#X obj 924 138 inlet;
#X obj 21 21 inlet;
#X text 970 137 config params;
#X text 67 20 search params;
#X obj 924 381 s \$0-page;
#X obj 946 358 s \$0-page_size;
#X obj 968 335 s \$0-sort;
#X obj 1013 288 s \$0-format;
#X obj 991 311 s \$0-group_by_pack;
#X obj 1035 265 s \$0-token;
#X obj 22 254 symbol;
#X obj 61 230 r \$0-next;
#X obj 77 201 symbol;
#X msg 222 609 symbol &page=\$1;
#X msg 256 662 symbol &page_size=\$1;
#X obj 256 638 r \$0-page_size;
#X obj 222 584 r \$0-page;
#X obj 189 690 pack s s s;
#X obj 189 552 t s b, f 28;
#X msg 189 715 symbol https://freesound.org/apiv2\$1\$2\$3;
#X obj 116 176 r \$0-prev;
#X obj 1058 239 s \$0-fields;
#X msg 189 768 GET \$1\$2;
#X obj 75 631 r \$0-page;
#X obj 60 686 print PAGE;
#X obj 20 578 t b;
#X msg 20 606 1;
#X msg 77 606 -1;
#X obj 20 656 + 1;
#X obj 57 656 f;
#X obj 77 578 t b;
#X obj 189 738 pack s s, f 43;
#X obj 924 163 route page page_size sort group_by_pack format token
fields descriptors, f 26;
#X obj 1080 216 s \$0-descriptors;
#X msg 960 524 \; \$1-page 1 \; \$1-page_size 3 \; \$1-fields id name
tags username license \; \$1-descriptors none \; \$1-sort score \;
\$1-group_by_pack 0 \; \$1-format json \; \$1-token qMUAlnX6PS8r1ONTdB9e2XftVJS0fNJAQZSHbNqD
\;;
#X obj 189 176 list split 1;
#N canvas 572 188 414 584 config-parameters 0;
#X obj 67 406 inlet;
#X msg 211 360 symbol &format=\$1;
#X msg 233 437 symbol &token=\$1;
#X obj 233 412 symbol;
#X obj 211 338 symbol;
#X obj 211 315 r \$0-format;
#X obj 167 217 symbol;
#X obj 167 194 r \$0-sort;
#X msg 167 239 symbol &sort=\$1;
#X obj 189 264 r \$0-group_by_pack;
#X msg 189 289 symbol &group_by_pack=\$1;
#X obj 233 386 r \$0-token;
#X msg 124 89 symbol &fields=\$1;
#X obj 124 65 list2symbol %2C;
#X obj 124 39 r \$0-fields;
#X obj 124 461 pack s s s s s s;
#X obj 145 141 list2symbol %2C;
#X obj 145 115 r \$0-descriptors;
#X msg 145 165 symbol &descriptors=\$1;
#X msg 124 487 symbol \$1\$2\$3\$4\$5\$6;
#X obj 124 511 outlet;
#X connect 0 0 15 0;
#X connect 1 0 15 4;
#X connect 2 0 15 5;
#X connect 3 0 2 0;
#X connect 4 0 1 0;
#X connect 5 0 4 0;
#X connect 6 0 8 0;
#X connect 7 0 6 0;
#X connect 8 0 15 2;
#X connect 9 0 10 0;
#X connect 10 0 15 3;
#X connect 11 0 3 0;
#X connect 12 0 15 0;
#X connect 13 0 12 0;
#X connect 14 0 13 0;
#X connect 15 0 19 0;
#X connect 16 0 18 0;
#X connect 17 0 16 0;
#X connect 18 0 15 1;
#X connect 19 0 20 0;
#X restore 487 715 pd config-parameters;
#X obj 189 465 pack s s;
#X msg 189 425 symbol ?\$1=;
#X obj 525 263 list-find-first, f 18;
#X msg 189 492 /search/text/\$1\$2;
#X obj 458 290 list split;
#X obj 490 374 list split 1;
#X obj 490 424 list append;
#X obj 416 448 list append;
#X msg 525 234 symbol filter;
#X msg 490 401 symbol &\$1=;
#X obj 366 491 list, f 44;
#X floatatom 548 295 5 0 0 0 - - -;
#X obj 238 205 t b a a a, f 64;
#X text 554 319 MALLLL;
#X obj 816 90 list split 1;
#X msg 1080 95 search-combined -query;
#X obj 22 45 route next previous sounds search-text search-content
search-combined users packs me descriptors, f 80;
#X obj 287 261 print first;
#X msg 720 536 list;
#X obj 702 605 list fromsymbol;
#X obj 702 629 list split 1;
#X obj 702 682 list append;
#X obj 737 353 list fromsymbol;
#X floatatom 751 388 5 0 0 0 - - -;
#X obj 714 819 print;
#X msg 702 655 63;
#X obj 702 733 list tosymbol;
#X msg 736 311 symbol =;
#X obj 702 707 list append 61;
#X msg 415 11 search-text -filter bass drum;
#X connect 0 0 1 0;
#X connect 2 0 4 0;
#X connect 3 0 2 0;
#X connect 5 0 10 0;
#X connect 7 0 0 0;
#X connect 8 0 30 0;
#X connect 9 0 49 1;
#X connect 10 0 46 0;
#X connect 11 0 10 0;
#X connect 12 0 44 0;
#X connect 13 0 65 0;
#X connect 22 0 37 0;
#X connect 22 0 43 0;
#X connect 23 0 22 1;
#X connect 24 0 42 0;
#X connect 24 0 43 0;
#X connect 25 0 29 1;
#X connect 26 0 29 2;
#X connect 27 0 26 0;
#X connect 28 0 25 0;
#X connect 29 0 31 0;
#X connect 30 0 29 0;
#X connect 30 1 48 0;
#X connect 31 0 43 0;
#X connect 32 0 24 1;
#X connect 34 0 6 0;
#X connect 35 0 41 1;
#X connect 37 0 38 0;
#X connect 38 0 40 0;
#X connect 39 0 40 0;
#X connect 40 0 41 0;
#X connect 41 0 40 1;
#X connect 42 0 39 0;
#X connect 43 0 34 0;
#X connect 44 0 16 0;
#X connect 44 1 17 0;
#X connect 44 2 18 0;
#X connect 44 3 20 0;
#X connect 44 4 19 0;
#X connect 44 5 21 0;
#X connect 44 6 33 0;
#X connect 44 7 45 0;
#X connect 47 0 50 0;
#X connect 47 0 66 0;
#X connect 47 0 68 0;
#X connect 47 1 61 0;
#X connect 48 0 43 1;
#X connect 49 0 52 0;
#X connect 50 0 49 0;
#X connect 51 0 53 1;
#X connect 51 0 60 0;
#X connect 52 0 8 0;
#X connect 53 0 56 0;
#X connect 53 1 54 0;
#X connect 54 0 58 0;
#X connect 54 1 55 1;
#X connect 55 0 56 1;
#X connect 56 0 59 1;
#X connect 57 0 51 0;
#X connect 58 0 55 0;
#X connect 59 0 9 0;
#X connect 61 0 59 0;
#X connect 61 1 53 0;
#X connect 61 2 57 0;
#X connect 61 3 51 1;
#X connect 61 3 59 1;
#X connect 65 0 22 0;
#X connect 65 1 24 0;
#X connect 65 3 47 0;
#X connect 68 0 69 0;
#X connect 69 0 74 0;
#X connect 69 1 70 1;
#X connect 70 0 77 0;
#X connect 71 0 72 0;
#X connect 74 0 70 0;
#X connect 75 0 73 0;
#X connect 76 0 71 0;
#X connect 77 0 75 0;
#X connect 78 0 65 0;
