#N canvas 99 88 1242 772 12;
#X obj 177 510 json-decode;
#N canvas 185 169 737 529 parse-json 0;
#X obj 19 15 inlet;
#X obj 398 126 json-decode;
#X obj 398 151 list trim;
#X obj 446 424 print NAME;
#X obj 398 450 print ID;
#X obj 591 200 print USERNAME;
#X obj 494 298 json-decode;
#X obj 398 176 route id name tags license username;
#X obj 472 151 bng 15 250 50 0 empty empty empty 17 7 0 10 -262144
-1 -1;
#X obj 20 88 route count next previous results;
#X obj 494 322 list append, f 16;
#X obj 505 346 t l;
#X obj 469 346 list;
#X obj 543 253 print LICENSE;
#X obj 469 371 list trim;
#X obj 543 227 t a b b;
#X obj 264 457 print -n;
#X obj 296 275 + 1;
#X obj 264 275 f 1;
#X obj 19 40 t l b, f 38;
#X obj 19 64 list trim;
#X msg 282 165 1;
#X msg 264 434 \  \, \$1);
#X obj 398 204 t f b;
#X obj 286 381 table sndid 151;
#X obj 285 356 tabwrite sndid;
#X obj 469 398 print TAGS;
#X obj 20 246 print NUMBER OF MATCHING ITEMS;
#X obj 77 207 s \$0-next;
#X obj 77 180 symbol;
#X obj 134 153 symbol;
#X obj 134 177 s \$0-previous;
#X connect 0 0 19 0;
#X connect 1 0 2 0;
#X connect 1 1 8 0;
#X connect 2 0 7 0;
#X connect 6 0 10 0;
#X connect 7 0 23 0;
#X connect 7 1 3 0;
#X connect 7 2 6 0;
#X connect 7 3 15 0;
#X connect 7 4 5 0;
#X connect 9 0 27 0;
#X connect 9 1 29 0;
#X connect 9 2 30 0;
#X connect 9 3 1 0;
#X connect 10 0 11 0;
#X connect 10 0 12 1;
#X connect 11 0 10 1;
#X connect 12 0 14 0;
#X connect 14 0 26 0;
#X connect 15 0 13 0;
#X connect 15 1 10 1;
#X connect 15 2 12 0;
#X connect 17 0 18 1;
#X connect 18 0 17 0;
#X connect 18 0 22 0;
#X connect 18 0 25 1;
#X connect 19 0 20 0;
#X connect 19 1 21 0;
#X connect 20 0 9 0;
#X connect 21 0 18 1;
#X connect 22 0 16 0;
#X connect 23 0 4 0;
#X connect 23 0 25 0;
#X connect 23 1 18 0;
#X connect 29 0 28 0;
#X connect 30 0 31 0;
#X restore 177 536 pd parse-json;
#X obj 895 622 tabread sndid;
#X floatatom 891 514 5 0 0 0 - - -;
#X floatatom 921 652 0 0 0 0 - - -;
#X obj 841 307 loadbang;
#X obj 192 460 print URL STRING;
#X obj 177 484 rest;
#X obj 177 194 symbol;
#X obj 177 83 route text content combined;
#X obj 177 109 list2symbol %20;
#X obj 841 351 \$0;
#X obj 850 329 bng 15 250 50 0 empty empty empty 17 7 0 10 -262144
-1 -1;
#X obj 841 61 inlet;
#X msg 841 378 \; \$1-page 1 \; \$1-page_size 3 \; \$1-sort score \;
\$1-group_by_pack 0 \; \$1-format json \; \$1-token qMUAlnX6PS8r1ONTdB9e2XftVJS0fNJAQZSHbNqD
\;;
#N canvas 0 23 658 300 original-format 0;
#X msg 36 92 /search/content/?target=1245;
#X msg 50 118 /search/content/?descriptors_filter=lowlevel.pitch.mean:[219.9%20TO%20220.1]
, f 76;
#X msg 65 145 /search/combined/?filter=tag:loop&descriptors_filter=rhythm.bpm:[119%20TO%20121]
, f 81;
#X msg 11 42 /search/text/?query=mosca;
#X msg 25 66 /search/text/?query=city&filter=tag:barcelona;
#X text 9 15 DELETE WHEN PROPERLY IMPLEMENTED!!!!;
#X obj 31 215 outlet;
#X connect 0 0 6 0;
#X connect 1 0 6 0;
#X connect 2 0 6 0;
#X connect 3 0 6 0;
#X connect 4 0 6 0;
#X restore 190 162 pd original-format;
#X obj 11 34 inlet;
#X text 837 38 config params;
#X text 10 11 search params;
#X obj 841 282 s \$0-page;
#X obj 870 259 s \$0-page_size;
#X obj 900 236 s \$0-sort;
#X obj 960 189 s \$0-format;
#X obj 930 212 s \$0-group_by_pack;
#X obj 990 166 s \$0-token;
#X obj 12 201 symbol;
#X obj 841 86 route page page_size sort group_by_pack format token
, f 26;
#X obj 51 174 r \$0-next;
#X obj 22 140 symbol;
#X obj 61 115 r \$0-previous;
#X obj 12 58 route next previous sound search;
#X msg 210 271 symbol &page=\$1;
#X msg 244 324 symbol &page_size=\$1;
#X obj 244 300 r \$0-page_size;
#X obj 210 246 r \$0-page;
#X msg 542 258 symbol &format=\$1;
#X msg 569 336 symbol &token=\$1;
#X obj 569 311 symbol;
#X obj 542 236 symbol;
#X obj 542 213 r \$0-format;
#X obj 488 113 symbol;
#X obj 488 90 r \$0-sort;
#X msg 488 135 symbol &sort=\$1;
#X obj 515 162 r \$0-group_by_pack;
#X msg 515 187 symbol &group_by_pack=\$1;
#X obj 569 285 r \$0-token;
#X obj 488 361 pack s s s s;
#X obj 177 352 pack s s s;
#X obj 177 406 pack s s;
#X obj 177 219 t s b, f 28;
#X msg 488 387 symbol \$1\$2\$3\$4;
#X msg 177 433 GET \$1\$2;
#X msg 177 135 search/text/?\$1;
#X msg 177 377 symbol https://freesound.org/apiv2/\$1\$2\$3;
#X connect 0 0 1 0;
#X connect 2 0 4 0;
#X connect 3 0 2 0;
#X connect 5 0 11 0;
#X connect 7 0 0 0;
#X connect 8 0 49 0;
#X connect 9 0 10 0;
#X connect 10 0 52 0;
#X connect 11 0 14 0;
#X connect 12 0 11 0;
#X connect 13 0 26 0;
#X connect 15 0 8 0;
#X connect 16 0 30 0;
#X connect 25 0 48 0;
#X connect 26 0 19 0;
#X connect 26 1 20 0;
#X connect 26 2 21 0;
#X connect 26 3 23 0;
#X connect 26 4 22 0;
#X connect 26 5 24 0;
#X connect 27 0 25 1;
#X connect 28 0 48 0;
#X connect 29 0 28 1;
#X connect 30 0 25 0;
#X connect 30 1 28 0;
#X connect 30 3 9 0;
#X connect 31 0 47 1;
#X connect 32 0 47 2;
#X connect 33 0 32 0;
#X connect 34 0 31 0;
#X connect 35 0 46 2;
#X connect 36 0 46 3;
#X connect 37 0 36 0;
#X connect 38 0 35 0;
#X connect 39 0 38 0;
#X connect 40 0 42 0;
#X connect 41 0 40 0;
#X connect 42 0 46 0;
#X connect 43 0 44 0;
#X connect 44 0 46 1;
#X connect 45 0 37 0;
#X connect 46 0 50 0;
#X connect 47 0 53 0;
#X connect 48 0 51 0;
#X connect 49 0 47 0;
#X connect 49 1 46 0;
#X connect 50 0 48 1;
#X connect 51 0 6 0;
#X connect 51 0 7 0;
#X connect 52 0 8 0;
#X connect 53 0 48 0;
