#N canvas 428 23 1072 915 12;
#X obj 59 513 fspd-search;
#X msg 109 841 search text query madre & filter tag:high;
#X msg 99 812 search text query dogs cats pets;
#X msg 55 731 search text query casa ciudad & filter tag:barcelona
;
#X msg 91 781 search text query= casa & filter= tag:berlin;
#X text 331 18 The query is the main parameter used to define a query.
You can type several terms separated by spaces or phrases wrapped inside
quote ‘”’ characters. For every term \, you can also use ‘+’
and ‘-‘ modifier characters to indicate that a term is “mandatory”
or “prohibited” (by default \, terms are considered to be “mandatory”).
For example \, in a query such as query=term_a -term_b \, sounds including
term_b will not match the search criteria. The query does a weighted
search over some sound properties including sound tags \, the sound
name \, its description \, pack name and the sound id. Therefore \,
searching for query=123 will find you sounds with id 1234 \, sounds
that have 1234 in the description \, in the tags \, etc. You’ll find
some examples below. Using an empty query (query= or query="") will
return all Freesound sounds.;
#X msg 31 63 search text query= dogs small terrier;
#X msg 41 93 search text query= dogs small terrier;
#X msg 51 123 search text query= dogs small terrier;
#X obj 278 331 r config-params;
#X msg 21 33 search text query= dogs;
#N canvas 0 23 1051 650 more 0;
#X msg 322 61 search;
#X msg 395 62 text;
#X msg 395 117 content;
#X msg 396 226 combined;
#X msg 501 58 ?query=;
#X msg 501 117 ?target=;
#X msg 501 144 ?descriptors_filter=;
#X obj 101 520 print q;
#X obj 114 595 print f;
#X obj 48 477 route filter;
#X text 342 15 some of these words might be redundant!!!!!;
#X obj 80 401 list split;
#X obj 46 224 t a b a;
#X obj 147 354 list-find-first;
#X msg 147 328 &;
#X obj 80 444 print que;
#X obj -10 335 list2symbol %20;
#X obj 164 453 print tal;
#X obj 558 413 print sort;
#X obj 430 385 route query= filter sort group_by_pack;
#X connect 9 0 8 0;
#X connect 9 1 7 0;
#X connect 11 0 15 0;
#X connect 11 1 17 0;
#X connect 12 0 16 0;
#X connect 12 1 14 0;
#X connect 12 2 13 1;
#X connect 13 0 11 1;
#X connect 14 0 13 0;
#X connect 16 0 11 0;
#X connect 19 2 18 0;
#X restore 191 677 pd more;
#X msg 175 297 next;
#X msg 147 274 previous;
#X floatatom 334 428 5 1 150 0 - - -;
#X msg 314 391 page \$1;
#X floatatom 314 368 5 0 0 0 - - -;
#X msg 334 454 page_size \$1;
#X text 380 362 results from the freesound API is organised and returned
as pages \, with the maximum number of results per page specified with
the "page_size" method., f 53;
#X text 378 427 maximum number of results per page (max 150!!!);
#N canvas 351 43 1124 444 more-config-parameters 0;
#X obj 8 237 s config-params;
#X msg 8 29 format json;
#X text 104 25 although the freesound api can return the query results
in various formats (json \, xml \, yaml) \, this implementation will
only work with json format., f 53;
#X msg 52 99 token <YOUR-API-KEY>;
#X text 212 97 you should specify your API token to retrieve information
from Freesound., f 38;
#X msg 625 60 score;
#X msg 635 90 duration_desc;
#X msg 645 120 duration_asc;
#X msg 655 150 created_desc;
#X msg 665 180 created_asc;
#X msg 675 210 downloads_desc;
#X msg 685 240 downloads_asc;
#X msg 695 270 rating_desc;
#X msg 705 301 rating_asc;
#X text 672 60 (default);
#X msg 625 378 sort \$1;
#X obj 625 353 symbol;
#X obj 625 405 s config-params;
#X text 630 29 you can have your results sorted according to different
criteria, f 67;
#X msg 71 186 group_by_pack \$1;
#X obj 71 166 tgl 15 0 empty empty empty 17 7 0 10 -262144 -1 -1 0
1;
#X text 90 163 you can group the results by sound packs (defaults to
0);
#X connect 1 0 0 0;
#X connect 3 0 0 0;
#X connect 5 0 16 0;
#X connect 6 0 16 0;
#X connect 7 0 16 0;
#X connect 8 0 16 0;
#X connect 9 0 16 0;
#X connect 10 0 16 0;
#X connect 11 0 16 0;
#X connect 12 0 16 0;
#X connect 13 0 16 0;
#X connect 15 0 17 0;
#X connect 16 0 15 0;
#X connect 19 0 0 0;
#X connect 20 0 19 0;
#X restore 57 594 pd more-config-parameters;
#X text 214 276 navigate through pages with same query!, f 22;
#X connect 6 0 0 0;
#X connect 9 0 0 1;
#X connect 10 0 0 0;
#X connect 12 0 0 0;
#X connect 13 0 0 0;
#X connect 14 0 17 0;
#X connect 15 0 0 1;
#X connect 16 0 15 0;
#X connect 17 0 0 1;
